<svg width="1440" height="151" viewBox="0 0 1440 151" fill="none" xmlns="http://www.w3.org/2000/svg">
<path d="M29.7063 207.289C-1.18214 193.173 -14.7752 156.687 -0.65199 125.802V125.802C13.4688 94.9221 49.9489 81.3363 80.8286 95.457L173.952 138.041C204.804 152.149 241.251 138.575 255.358 107.724V107.724C269.466 76.8725 305.913 63.2991 336.765 77.4069L429.764 119.934C460.648 134.057 497.132 120.469 511.255 89.5857V89.5857C525.377 58.7022 561.862 45.1148 592.745 59.2372L685.745 101.764C716.596 115.872 753.043 102.299 767.151 71.4474V71.4474C781.259 40.5959 817.705 27.0225 848.557 41.1304L947.208 86.2419C975.593 99.222 1009.18 88.0483 1024.14 60.6515V60.6515C1038.27 34.7642 1069.24 23.1441 1096.91 33.3463L1198.06 70.6418C1229.35 82.1746 1264.23 67.6582 1278.09 37.339V37.339C1292.74 5.31972 1330.56 -8.76745 1362.58 5.87443L1436.85 39.8362C1476.99 58.1923 1494.68 105.592 1476.38 145.759L1237.08 670.989C1218.75 711.228 1171.25 728.962 1131.03 710.583L29.7063 207.289Z" fill="#075985"/>
</svg>
