<svg width="40" height="41"
                            viewBox="0 0 40 41" fill="none" xmlns="http://www.w3.org/2000/svg">
                            <g clip-path="url(#clip0_201_29)">
                                <path
                                    d="M8.33331 12.4012C8.33331 11.4287 8.71962 10.4961 9.40725 9.80843C10.0949 9.1208 11.0275 8.73449 12 8.73449H13.6666C14.6348 8.73394 15.5635 8.3505 16.25 7.66783L17.4166 6.50116C17.7574 6.15849 18.1625 5.88656 18.6087 5.701C19.0549 5.51545 19.5334 5.41992 20.0166 5.41992C20.4999 5.41992 20.9784 5.51545 21.4246 5.701C21.8708 5.88656 22.2759 6.15849 22.6166 6.50116L23.7833 7.66783C24.47 8.35116 25.4 8.73449 26.3666 8.73449H28.0333C29.0058 8.73449 29.9384 9.1208 30.626 9.80843C31.3137 10.4961 31.7 11.4287 31.7 12.4012V14.0678C31.7 15.0345 32.0833 15.9645 32.7666 16.6512L33.9333 17.8178C34.276 18.1586 34.5479 18.5637 34.7335 19.0099C34.919 19.4561 35.0145 19.9346 35.0145 20.4178C35.0145 20.9011 34.919 21.3796 34.7335 21.8258C34.5479 22.272 34.276 22.6771 33.9333 23.0178L32.7666 24.1845C32.084 24.871 31.7005 25.7997 31.7 26.7678V28.4345C31.7 29.407 31.3137 30.3396 30.626 31.0272C29.9384 31.7149 29.0058 32.1012 28.0333 32.1012H26.3666C25.3985 32.1017 24.4698 32.4852 23.7833 33.1678L22.6166 34.3345C22.2759 34.6772 21.8708 34.9491 21.4246 35.1346C20.9784 35.3202 20.4999 35.4157 20.0166 35.4157C19.5334 35.4157 19.0549 35.3202 18.6087 35.1346C18.1625 34.9491 17.7574 34.6772 17.4166 34.3345L16.25 33.1678C15.5635 32.4852 14.6348 32.1017 13.6666 32.1012H12C11.0275 32.1012 10.0949 31.7149 9.40725 31.0272C8.71962 30.3396 8.33331 29.407 8.33331 28.4345V26.7678C8.33275 25.7997 7.94931 24.871 7.26664 24.1845L6.09998 23.0178C5.75731 22.6771 5.48538 22.272 5.29982 21.8258C5.11426 21.3796 5.01874 20.9011 5.01874 20.4178C5.01874 19.9346 5.11426 19.4561 5.29982 19.0099C5.48538 18.5637 5.75731 18.1586 6.09998 17.8178L7.26664 16.6512C7.94931 15.9646 8.33275 15.036 8.33331 14.0678V12.4012Z"
                                    stroke="#F2C704" stroke-width="3" stroke-linecap="round" stroke-linejoin="round" />
                                <path d="M15 20.4017L18.3333 23.735L25 17.0684" stroke="#F2C704" stroke-width="3"
                                    stroke-linecap="round" stroke-linejoin="round" />
                            </g>
                            <defs>
                                <clipPath id="clip0_201_29">
                                    <rect width="40" height="40" fill="white" transform="translate(0 0.401367)" />
                                </clipPath>
                            </defs>
                        </svg>