<svg width="30" height="30" viewBox="0 0 30 30" fill="none"
                                            xmlns="http://www.w3.org/2000/svg">
                                            <g clip-path="url(#clip0_224_32401)">
                                                <path
                                                    d="M25 13.751V11.251C25 10.5879 24.7366 9.95205 24.2678 9.48321C23.7989 9.01437 23.163 8.75098 22.5 8.75098H7.5C6.83696 8.75098 6.20107 9.01437 5.73223 9.48321C5.26339 9.95205 5 10.5879 5 11.251V17.501C5 18.164 5.26339 18.7999 5.73223 19.2687C6.20107 19.7376 6.83696 20.001 7.5 20.001H13.75"
                                                    stroke="#7955F7" stroke-width="3" stroke-linecap="round"
                                                    stroke-linejoin="round" />
                                                <path
                                                    d="M18.75 22.501C18.75 23.4955 19.1451 24.4494 19.8483 25.1526C20.5516 25.8559 21.5054 26.251 22.5 26.251C23.4946 26.251 24.4484 25.8559 25.1517 25.1526C25.8549 24.4494 26.25 23.4955 26.25 22.501C26.25 21.5064 25.8549 20.5526 25.1517 19.8493C24.4484 19.1461 23.4946 18.751 22.5 18.751C21.5054 18.751 20.5516 19.1461 19.8483 19.8493C19.1451 20.5526 18.75 21.5064 18.75 22.501Z"
                                                    stroke="#7955F7" stroke-width="3" stroke-linecap="round"
                                                    stroke-linejoin="round" />
                                                <path d="M25.25 25.251L27.5 27.501" stroke="#7955F7" stroke-width="3"
                                                    stroke-linecap="round" stroke-linejoin="round" />
                                            </g>
                                            <defs>
                                                <clipPath id="clip0_224_32401">
                                                    <rect width="30" height="30" fill="white"
                                                        transform="translate(0 0.000976562)" />
                                                </clipPath>
                                            </defs>
                                        </svg>
