<svg width="40" height="41"
                            viewBox="0 0 40 41" fill="none" xmlns="http://www.w3.org/2000/svg">
                            <g clip-path="url(#clip0_204_116)">
                                <path
                                    d="M23.3333 5.40137V12.068C23.3333 12.5101 23.5089 12.934 23.8215 13.2465C24.1341 13.5591 24.558 13.7347 25 13.7347H31.6667"
                                    stroke="#0014C7" stroke-width="2" stroke-linecap="round" stroke-linejoin="round" />
                                <path
                                    d="M28.3333 35.4014H11.6667C10.7826 35.4014 9.93478 35.0502 9.30965 34.4251C8.68453 33.7999 8.33334 32.9521 8.33334 32.068V8.7347C8.33334 7.85065 8.68453 7.0028 9.30965 6.37768C9.93478 5.75256 10.7826 5.40137 11.6667 5.40137H23.3333L31.6667 13.7347V32.068C31.6667 32.9521 31.3155 33.7999 30.6904 34.4251C30.0652 35.0502 29.2174 35.4014 28.3333 35.4014Z"
                                    stroke="#0014C7" stroke-width="2" stroke-linecap="round" stroke-linejoin="round" />
                                <path
                                    d="M18.3333 21.2344C18.3333 20.5713 18.07 19.9354 17.6011 19.4666C17.1323 18.9978 16.4964 18.7344 15.8333 18.7344C15.1703 18.7344 14.5344 18.9978 14.0656 19.4666C13.5967 19.9354 13.3333 20.5713 13.3333 21.2344V26.2344C13.3333 26.8974 13.5967 27.5333 14.0656 28.0021C14.5344 28.471 15.1703 28.7344 15.8333 28.7344C16.4964 28.7344 17.1323 28.471 17.6011 28.0021C18.07 27.5333 18.3333 26.8974 18.3333 26.2344"
                                    stroke="#0014C7" stroke-width="2" stroke-linecap="round" stroke-linejoin="round" />
                                <path d="M21.6667 18.7344L24.1667 28.7344L26.6667 18.7344" stroke="#0014C7"
                                    stroke-width="2" stroke-linecap="round" stroke-linejoin="round" />
                            </g>
                            <defs>
                                <clipPath id="clip0_204_116">
                                    <rect width="40" height="40" fill="white" transform="translate(0 0.401367)" />
                                </clipPath>
                            </defs>
                        </svg>