<svg width="40" height="41"
                            viewBox="0 0 40 41" fill="none" xmlns="http://www.w3.org/2000/svg">
                            <g clip-path="url(#clip0_201_4)">
                                <path
                                    d="M20 35.4014C17.4053 34.7284 14.9725 33.5407 12.8459 31.9088C10.7193 30.277 8.9425 28.2343 7.62098 25.9022C6.29946 23.5701 5.46021 20.9962 5.15311 18.3333C4.84602 15.6705 5.07733 12.9731 5.83332 10.4014C11.0259 10.639 16.1069 8.84566 20 5.40137C23.893 8.84566 28.9741 10.639 34.1667 10.4014C35.065 13.4547 35.2117 16.6464 34.6383 19.7147"
                                    stroke="#2DB57C" stroke-width="2" stroke-linecap="round" stroke-linejoin="round" />
                                <path
                                    d="M25 30.4014C25 31.7274 25.5268 32.9992 26.4645 33.9369C27.4021 34.8746 28.6739 35.4014 30 35.4014C31.3261 35.4014 32.5979 34.8746 33.5355 33.9369C34.4732 32.9992 35 31.7274 35 30.4014C35 29.0753 34.4732 27.8035 33.5355 26.8658C32.5979 25.9282 31.3261 25.4014 30 25.4014C28.6739 25.4014 27.4021 25.9282 26.4645 26.8658C25.5268 27.8035 25 29.0753 25 30.4014Z"
                                    stroke="#2DB57C" stroke-width="2" stroke-linecap="round" stroke-linejoin="round" />
                                <path d="M33.6667 34.0684L36.6667 37.0684" stroke="#2DB57C" stroke-width="2"
                                    stroke-linecap="round" stroke-linejoin="round" />
                            </g>
                            <defs>
                                <clipPath id="clip0_201_4">
                                    <rect width="40" height="40" fill="white" transform="translate(0 0.401367)" />
                                </clipPath>
                            </defs>
                        </svg>