
                                                    <svg width="30" height="30" viewBox="0 0 30 30" fill="none"
                                                        xmlns="http://www.w3.org/2000/svg">
                                                        <g clip-path="url(#clip0_224_32437)">
                                                            <path
                                                                d="M10 16.251V5.62598C10 5.1287 10.1975 4.65178 10.5492 4.30015C10.9008 3.94852 11.3777 3.75098 11.875 3.75098C12.3723 3.75098 12.8492 3.94852 13.2008 4.30015C13.5525 4.65178 13.75 5.1287 13.75 5.62598V15.001"
                                                                stroke="#2DB57C" stroke-width="3" stroke-linecap="round"
                                                                stroke-linejoin="round" />
                                                            <path
                                                                d="M13.75 14.376V11.876C13.75 11.6297 13.7985 11.3859 13.8927 11.1584C13.987 10.931 14.1251 10.7243 14.2992 10.5502C14.4733 10.376 14.68 10.2379 14.9075 10.1437C15.135 10.0495 15.3788 10.001 15.625 10.001C15.8712 10.001 16.115 10.0495 16.3425 10.1437C16.57 10.2379 16.7767 10.376 16.9508 10.5502C17.1249 10.7243 17.263 10.931 17.3573 11.1584C17.4515 11.3859 17.5 11.6297 17.5 11.876V15.001"
                                                                stroke="#2DB57C" stroke-width="3" stroke-linecap="round"
                                                                stroke-linejoin="round" />
                                                            <path
                                                                d="M17.5 13.126C17.5 12.6287 17.6975 12.1518 18.0492 11.8002C18.4008 11.4485 18.8777 11.251 19.375 11.251C19.8723 11.251 20.3492 11.4485 20.7008 11.8002C21.0525 12.1518 21.25 12.6287 21.25 13.126V15.001"
                                                                stroke="#2DB57C" stroke-width="3" stroke-linecap="round"
                                                                stroke-linejoin="round" />
                                                            <path
                                                                d="M21.25 14.376C21.25 13.8787 21.4475 13.4018 21.7992 13.0502C22.1508 12.6985 22.6277 12.501 23.125 12.501C23.6223 12.501 24.0992 12.6985 24.4508 13.0502C24.8024 13.4018 25 13.8787 25 14.376V20.001C25 21.9901 24.2098 23.8978 22.8033 25.3043C21.3968 26.7108 19.4891 27.501 17.5 27.501H15H15.26C14.0179 27.5012 12.7952 27.1929 11.7017 26.6038C10.6082 26.0148 9.67813 25.1633 8.99499 24.126C8.913 24.0012 8.83133 23.8762 8.74999 23.751C8.35999 23.1522 6.99124 20.766 4.64249 16.591C4.40305 16.1654 4.33909 15.6632 4.46421 15.1912C4.58934 14.7192 4.89367 14.3146 5.31249 14.0635C5.75858 13.7958 6.28133 13.6849 6.79768 13.7483C7.31404 13.8117 7.79441 14.0458 8.16249 14.4135L9.99999 16.251"
                                                                stroke="#2DB57C" stroke-width="3" stroke-linecap="round"
                                                                stroke-linejoin="round" />
                                                        </g>
                                                        <defs>
                                                            <clipPath id="clip0_224_32437">
                                                                <rect width="30" height="30" fill="white"
                                                                    transform="translate(0 0.000976562)" />
                                                            </clipPath>
                                                        </defs>
                                                    </svg>