<svg width="109" height="109" viewBox="0 0 109 109" fill="none" xmlns="http://www.w3.org/2000/svg">
                        <g clip-path="url(#clip0_224_34289)">
                            <path
                                d="M80.0667 -37.5938C85.2519 -37.5934 90.2595 -35.7046 94.1533 -32.2804L95.18 -31.3137L99.8333 -26.6604C101.11 -25.3917 102.778 -24.5907 104.567 -24.3871L105.467 -24.3337H112.133C117.581 -24.3341 122.823 -22.2499 126.784 -18.5088C130.744 -14.7677 133.123 -9.65305 133.433 -4.21375L133.467 -3.00042V3.66625C133.467 5.46625 134.08 7.21959 135.187 8.61959L135.787 9.28625L140.433 13.9396C144.285 17.7692 146.531 22.9237 146.713 28.352C146.895 33.7804 144.999 39.0738 141.413 43.1529L140.447 44.1796L135.793 48.8329C134.525 50.11 133.724 51.7776 133.52 53.5663L133.467 54.4663V61.1329C133.467 66.581 131.383 71.8228 127.642 75.7834C123.901 79.7439 118.786 82.1231 113.347 82.4329L112.133 82.4663H105.467C103.669 82.4669 101.924 83.0727 100.513 84.1863L99.8466 84.7863L95.1933 89.4329C91.3637 93.2844 86.2092 95.5301 80.7809 95.7122C75.3525 95.8943 70.0591 93.9991 65.98 90.4129L64.9533 89.4463L60.3 84.7929C59.0229 83.5242 57.3553 82.7232 55.5666 82.5196L54.6666 82.4663H48C42.5519 82.4666 37.3101 80.3825 33.3495 76.6413C29.389 72.9002 27.0098 67.7856 26.7 62.3463L26.6666 61.1329V54.4663C26.6661 52.6688 26.0602 50.9239 24.9466 49.5129L24.3466 48.8463L19.7 44.1929C15.8485 40.3633 13.6028 35.2088 13.4207 29.7805C13.2386 24.3521 15.1338 19.0587 18.72 14.9796L19.6866 13.9529L24.34 9.29959C25.6087 8.02252 26.4097 6.35487 26.6133 4.56625L26.6666 3.66625V-3.00042L26.7 -4.21375C26.9977 -9.44411 29.2095 -14.3821 32.9139 -18.0865C36.6183 -21.7909 41.5563 -24.0027 46.7866 -24.3004L48 -24.3337H54.6666C56.4641 -24.3343 58.209 -24.9402 59.62 -26.0537L60.2866 -26.6537L64.94 -31.3004C66.9222 -33.2945 69.2791 -34.877 71.8751 -35.9571C74.4711 -37.0371 77.255 -37.5933 80.0667 -37.5938ZM104.713 10.9529C103.463 9.70311 101.768 9.00101 100 9.00101C98.2322 9.00101 96.5368 9.70311 95.2867 10.9529L73.3333 32.8996L64.7133 24.2863L64.0866 23.7329C62.7467 22.6968 61.0626 22.2096 59.3765 22.3703C57.6903 22.5309 56.1285 23.3273 55.0083 24.5977C53.8881 25.8682 53.2934 27.5174 53.3451 29.2104C53.3968 30.9034 54.091 32.5132 55.2866 33.7129L68.62 47.0463L69.2467 47.5996C70.5293 48.5946 72.131 49.0874 73.7512 48.9855C75.3714 48.8836 76.8987 48.1941 78.0466 47.0463L104.713 20.3796L105.267 19.7529C106.262 18.4702 106.754 16.8686 106.653 15.2484C106.551 13.6282 105.861 12.1009 104.713 10.9529Z"
                                fill="white" fill-opacity="0.3" />
                        </g>
                        <defs>
                            <clipPath id="clip0_224_34289">
                                <rect width="160" height="160" fill="white" transform="translate(0 -51)" />
                            </clipPath>
                        </defs>
                    </svg>