<svg width="33" height="32" viewBox="0 0 33 32" fill="none" xmlns="http://www.w3.org/2000/svg">
<g clip-path="url(#clip0_483_231)">
<path d="M19.25 17.3333H24.75C25.1147 17.3333 25.4644 17.4738 25.7223 17.7239C25.9801 17.9739 26.125 18.313 26.125 18.6667V22.6667C26.125 23.0203 25.9801 23.3594 25.7223 23.6095C25.4644 23.8595 25.1147 24 24.75 24H20.625C20.2603 24 19.9106 23.8595 19.6527 23.6095C19.3949 23.3594 19.25 23.0203 19.25 22.6667V14.6667C19.25 11.1107 21.0829 8.88933 24.75 8" stroke="black" stroke-opacity="0.4" stroke-width="2" stroke-linecap="round" stroke-linejoin="round"/>
<path d="M6.875 17.3333H12.375C12.7397 17.3333 13.0894 17.4738 13.3473 17.7239C13.6051 17.9739 13.75 18.313 13.75 18.6667V22.6667C13.75 23.0203 13.6051 23.3594 13.3473 23.6095C13.0894 23.8595 12.7397 24 12.375 24H8.25C7.88533 24 7.53559 23.8595 7.27773 23.6095C7.01987 23.3594 6.875 23.0203 6.875 22.6667V14.6667C6.875 11.1107 8.70788 8.88933 12.375 8" stroke="black" stroke-opacity="0.4" stroke-width="2" stroke-linecap="round" stroke-linejoin="round"/>
</g>
<defs>
<clipPath id="clip0_483_231">
<rect width="33" height="32" fill="white" transform="matrix(-1 0 0 -1 33 32)"/>
</clipPath>
</defs>
</svg>
