<svg width="32" height="33" viewBox="0 0 32 33" fill="none" xmlns="http://www.w3.org/2000/svg">
<g clip-path="url(#clip0_483_235)">
<path d="M13.3334 15.125L8.00008 15.125C7.64646 15.125 7.30732 14.9801 7.05727 14.7223C6.80722 14.4644 6.66675 14.1147 6.66675 13.75L6.66675 9.625C6.66675 9.26033 6.80722 8.91059 7.05727 8.65273C7.30732 8.39487 7.64646 8.25 8.00008 8.25L12.0001 8.25C12.3537 8.25 12.6928 8.39487 12.9429 8.65273C13.1929 8.91059 13.3334 9.26033 13.3334 9.625L13.3334 17.875C13.3334 21.5421 11.5561 23.8329 8.00008 24.75" stroke="black" stroke-opacity="0.4" stroke-width="2" stroke-linecap="round" stroke-linejoin="round"/>
<path d="M25.3334 15.125L20.0001 15.125C19.6465 15.125 19.3073 14.9801 19.0573 14.7223C18.8072 14.4644 18.6667 14.1147 18.6667 13.75L18.6667 9.625C18.6667 9.26033 18.8072 8.91059 19.0573 8.65273C19.3073 8.39487 19.6465 8.25 20.0001 8.25L24.0001 8.25C24.3537 8.25 24.6928 8.39487 24.9429 8.65273C25.1929 8.91059 25.3334 9.26033 25.3334 9.625L25.3334 17.875C25.3334 21.5421 23.5561 23.8329 20.0001 24.75" stroke="black" stroke-opacity="0.4" stroke-width="2" stroke-linecap="round" stroke-linejoin="round"/>
</g>
<defs>
<clipPath id="clip0_483_235">
<rect width="32" height="33" fill="white"/>
</clipPath>
</defs>
</svg>
