<svg width="70" height="70" viewBox="0 0 70 70" fill="none" xmlns="http://www.w3.org/2000/svg">
<g clip-path="url(#clip0_473_154)">
<path d="M40.8334 37.9167L52.5001 37.9167C53.2736 37.9167 54.0155 38.224 54.5625 38.7709C55.1095 39.3179 55.4167 40.0598 55.4167 40.8333L55.4167 49.5833C55.4167 50.3569 55.1095 51.0987 54.5625 51.6457C54.0155 52.1927 53.2736 52.5 52.5001 52.5L43.7501 52.5C42.9765 52.5 42.2347 52.1927 41.6877 51.6457C41.1407 51.0987 40.8334 50.3569 40.8334 49.5833L40.8334 32.0833C40.8334 24.3046 44.7213 19.4454 52.5001 17.5" stroke="#F2C704" stroke-width="6" stroke-linecap="round" stroke-linejoin="round"/>
<path d="M14.5834 37.9167L26.2501 37.9167C27.0236 37.9167 27.7655 38.224 28.3125 38.7709C28.8595 39.3179 29.1667 40.0598 29.1667 40.8333L29.1667 49.5833C29.1667 50.3569 28.8595 51.0987 28.3125 51.6457C27.7655 52.1927 27.0236 52.5 26.2501 52.5L17.5001 52.5C16.7265 52.5 15.9847 52.1927 15.4377 51.6457C14.8907 51.0987 14.5834 50.3569 14.5834 49.5833L14.5834 32.0833C14.5834 24.3046 18.4713 19.4454 26.2501 17.5" stroke="#F2C704" stroke-width="6" stroke-linecap="round" stroke-linejoin="round"/>
</g>
<defs>
<clipPath id="clip0_473_154">
<rect width="70" height="70" fill="white" transform="translate(70 70) rotate(-180)"/>
</clipPath>
</defs>
</svg>
