<svg width="165" height="245" viewBox="0 0 165 245" fill="none"
                            xmlns="http://www.w3.org/2000/svg">
                            <g clip-path="url(#clip0_224_34330)">
                                <path
                                    d="M83.125 78.7502H118.75V43.1252L77.1875 1.56272C90.4831 -4.78716 105.42 -6.85896 119.942 -4.36739C134.464 -1.87582 147.856 5.05656 158.275 15.4751C168.694 25.8937 175.626 39.2861 178.118 53.808C180.609 68.3299 178.537 83.2671 172.188 96.5627L243.438 167.813C248.162 172.537 250.816 178.944 250.816 185.625C250.816 192.306 248.162 198.714 243.438 203.438C238.713 208.162 232.306 210.816 225.625 210.816C218.944 210.816 212.537 208.162 207.813 203.438L136.563 132.188C123.267 138.538 108.33 140.609 93.8078 138.118C79.2858 135.626 65.8935 128.694 55.4749 118.275C45.0563 107.857 38.1239 94.4644 35.6324 79.9425C33.1408 65.4205 35.2126 50.4833 41.5625 37.1877L83.125 78.7502Z"
                                    stroke="white" stroke-opacity="0.1" stroke-width="3" stroke-linecap="round"
                                    stroke-linejoin="round" />
                            </g>
                            <defs>
                                <clipPath id="clip0_224_34330">
                                    <rect width="285" height="285" fill="white" transform="translate(0 -40)" />
                                </clipPath>
                            </defs>
                        </svg>