<svg width="66" height="66" viewBox="0 0 66 66" fill="none" xmlns="http://www.w3.org/2000/svg">
<g filter="url(#filter0_d_224_32370)">
<rect x="13" y="9" width="40" height="40" rx="20" fill="url(#paint0_linear_224_32370)"/>
<g clip-path="url(#clip0_224_32370)">
<path d="M38 20.3399C39.5083 21.2107 40.7629 22.4604 41.6398 23.9652C42.5167 25.47 42.9854 27.1777 42.9994 28.9192C43.0135 30.6608 42.5725 32.3758 41.72 33.8946C40.8676 35.4133 39.6332 36.6831 38.1392 37.5782C36.6452 38.4733 34.9434 38.9627 33.2021 38.998C31.4608 39.0332 29.7406 38.6131 28.2116 37.7791C26.6826 36.9452 25.3979 35.7264 24.4847 34.2434C23.5715 32.7604 23.0614 31.0646 23.005 29.3239L23 28.9999L23.005 28.6759C23.061 26.9489 23.5635 25.2659 24.4636 23.7909C25.3637 22.3159 26.6307 21.0993 28.1409 20.2598C29.6511 19.4202 31.3531 18.9863 33.081 19.0003C34.8089 19.0144 36.5036 19.4759 38 20.3399ZM36.2 31.2859C36.0106 31.1003 35.7553 30.9975 35.4901 31.0001C35.2249 31.0027 34.9717 31.1106 34.786 31.2999C34.5532 31.5375 34.2753 31.7264 33.9687 31.8553C33.662 31.9842 33.3327 32.0505 33 32.0505C32.6673 32.0505 32.338 31.9842 32.0313 31.8553C31.7247 31.7264 31.4468 31.5375 31.214 31.2999C31.0274 31.1149 30.7755 31.0108 30.5128 31.0101C30.25 31.0094 29.9975 31.1121 29.8099 31.296C29.6223 31.48 29.5146 31.7303 29.5101 31.993C29.5057 32.2558 29.6048 32.5097 29.786 32.6999C30.205 33.1274 30.705 33.4671 31.2569 33.699C31.8088 33.9308 32.4014 34.0503 33 34.0503C33.5986 34.0503 34.1912 33.9308 34.7431 33.699C35.295 33.4671 35.795 33.1274 36.214 32.6999C36.3996 32.5105 36.5024 32.2552 36.4998 31.99C36.4972 31.7248 36.3893 31.4716 36.2 31.2859ZM30.01 25.9999L29.883 26.0069C29.6299 26.037 29.3979 26.1626 29.2343 26.3581C29.0707 26.5535 28.9879 26.8041 29.0028 27.0585C29.0178 27.3129 29.1293 27.5521 29.3146 27.727C29.5 27.902 29.7451 27.9996 30 27.9999L30.127 27.9929C30.3801 27.9628 30.6121 27.8372 30.7757 27.6417C30.9393 27.4463 31.0221 27.1957 31.0072 26.9413C30.9922 26.6868 30.8807 26.4477 30.6954 26.2727C30.51 26.0978 30.2649 26.0002 30.01 25.9999ZM36.01 25.9999L35.883 26.0069C35.6299 26.037 35.3979 26.1626 35.2343 26.3581C35.0707 26.5535 34.9879 26.8041 35.0028 27.0585C35.0178 27.3129 35.1293 27.5521 35.3146 27.727C35.5 27.902 35.7451 27.9996 36 27.9999L36.127 27.9929C36.3801 27.9628 36.6121 27.8372 36.7757 27.6417C36.9393 27.4463 37.0221 27.1957 37.0072 26.9413C36.9922 26.6868 36.8807 26.4477 36.6954 26.2727C36.51 26.0978 36.2649 26.0002 36.01 25.9999Z" fill="white"/>
</g>
</g>
<defs>
<filter id="filter0_d_224_32370" x="0" y="0" width="66" height="66" filterUnits="userSpaceOnUse" color-interpolation-filters="sRGB">
<feFlood flood-opacity="0" result="BackgroundImageFix"/>
<feColorMatrix in="SourceAlpha" type="matrix" values="0 0 0 0 0 0 0 0 0 0 0 0 0 0 0 0 0 0 127 0" result="hardAlpha"/>
<feOffset dy="4"/>
<feGaussianBlur stdDeviation="6.5"/>
<feComposite in2="hardAlpha" operator="out"/>
<feColorMatrix type="matrix" values="0 0 0 0 1 0 0 0 0 0 0 0 0 0 0 0 0 0 0.33 0"/>
<feBlend mode="normal" in2="BackgroundImageFix" result="effect1_dropShadow_224_32370"/>
<feBlend mode="normal" in="SourceGraphic" in2="effect1_dropShadow_224_32370" result="shape"/>
</filter>
<linearGradient id="paint0_linear_224_32370" x1="33" y1="9" x2="33" y2="49" gradientUnits="userSpaceOnUse">
<stop stop-color="#DB8300"/>
<stop offset="1" stop-color="#FEB242"/>
</linearGradient>
<clipPath id="clip0_224_32370">
<rect width="24" height="24" fill="white" transform="translate(21 17)"/>
</clipPath>
</defs>
</svg>
