<svg width="140" height="140" viewBox="0 0 140 140" fill="none" xmlns="http://www.w3.org/2000/svg">
<circle cx="70" cy="70" r="70" fill="#F2C704" fill-opacity="0.3"/>
<circle cx="70" cy="70" r="60" fill="#F2C704" fill-opacity="0.3"/>
<rect x="20" y="20" width="100" height="100" rx="50" fill="#F2C704"/>
<g clip-path="url(#clip0_503_161)">
<path d="M57.5 53.3329V86.6663C57.4999 87.037 57.5987 87.401 57.7862 87.7207C57.9737 88.0405 58.2432 88.3044 58.5667 88.4853C58.8903 88.6662 59.2562 88.7575 59.6268 88.7497C59.9974 88.742 60.3593 88.6355 60.675 88.4413L87.7583 71.7746C88.0617 71.5882 88.3122 71.3272 88.4859 71.0165C88.6597 70.7057 88.751 70.3556 88.751 69.9996C88.751 69.6436 88.6597 69.2935 88.4859 68.9828C88.3122 68.672 88.0617 68.411 87.7583 68.2246L60.675 51.5579C60.3593 51.3637 59.9974 51.2572 59.6268 51.2495C59.2562 51.2417 58.8903 51.333 58.5667 51.5139C58.2432 51.6948 57.9737 51.9587 57.7862 52.2785C57.5987 52.5983 57.4999 52.9623 57.5 53.3329Z" fill="black"/>
</g>
<defs>
<clipPath id="clip0_503_161">
<rect width="50" height="50" fill="white" transform="translate(45 45)"/>
</clipPath>
</defs>
</svg>
